# Blender v2.82 (sub 7) OBJ File: ''
# www.blender.org
mtllib floor.mtl
o WholeFloor:e11c3d8b-5521-403f-83c2-a524bcbd5c58
v 168.691910 0.180676 -4.898590
v 168.691910 0.180679 -24.608582
v 129.801910 0.180679 -24.608582
v -3.718094 0.180584 556.101440
v -42.468094 0.180584 556.041443
v -42.548096 0.180575 610.261414
v -6.708099 0.180575 610.301392
v -6.818100 0.180557 720.081421
v 18.961914 0.180557 720.091431
v 18.961914 0.180653 136.741425
v 29.971909 0.180653 136.741425
v 30.581909 0.180673 14.431427
v 105.531906 0.180673 15.111420
v 104.821907 0.180662 78.221436
v 127.071907 0.180662 78.521423
v 128.031906 0.180673 13.591431
v 394.551910 0.180673 13.591431
v 394.551910 0.180676 -4.898590
v 168.691910 0.180676 -4.898590
v 129.801910 0.180679 -24.608582
v 129.801910 0.180676 -6.008575
v -3.718094 0.180584 556.101440
v -42.548096 0.180575 610.261414
v -6.708099 0.180575 610.301392
v 105.531906 0.180673 15.111420
v 127.071907 0.180662 78.521423
v 128.031906 0.180673 13.591431
v 128.031906 0.180673 13.591431
v 394.551910 0.180676 -4.898590
v 168.691910 0.180676 -4.898590
v 168.691910 0.180676 -4.898590
v 129.801910 0.180676 -6.008575
v -3.718094 0.180676 -6.008575
v -3.718094 0.180584 556.101440
v -6.708099 0.180575 610.301392
v 18.961914 0.180557 720.091431
v 30.581909 0.180673 14.431427
v 105.531906 0.180673 15.111420
v 128.031906 0.180673 13.591431
v 128.031906 0.180673 13.591431
v 168.691910 0.180676 -4.898590
v -3.718094 0.180676 -6.008575
v -3.718094 0.180676 -6.008575
v -3.718094 0.180584 556.101440
v 18.961914 0.180557 720.091431
v 30.581909 0.180673 14.431427
v 128.031906 0.180673 13.591431
v -3.718094 0.180676 -6.008575
v -3.718094 0.180676 -6.008575
v 18.961914 0.180557 720.091431
v 18.961914 0.180653 136.741425
v 18.961914 0.180653 136.741425
v 30.581909 0.180673 14.431427
v -3.718094 0.180676 -6.008575
vt 7.040000 24.170000
vt 7.040000 24.820000
vt 5.740000 24.820000
vt 1.290000 5.470000
vt 0.000000 5.470000
vt 0.000000 3.660000
vt 1.190000 3.660000
vt 1.190000 0.000000
vt 2.050000 0.000000
vt 2.050000 19.440001
vt 2.420000 19.440001
vt 2.440000 23.520000
vt 4.940000 23.500000
vt 4.910000 21.400000
vt 5.650000 21.389999
vt 5.690000 23.549999
vt 14.570000 23.549999
vt 14.570000 24.170000
vt 7.040000 24.170000
vt 5.740000 24.820000
vt 5.740000 24.200001
vt 1.290000 5.470000
vt 0.000000 3.660000
vt 1.190000 3.660000
vt 4.940000 23.500000
vt 5.650000 21.389999
vt 5.690000 23.549999
vt 5.690000 23.549999
vt 14.570000 24.170000
vt 7.040000 24.170000
vt 7.040000 24.170000
vt 5.740000 24.200001
vt 1.290000 24.200001
vt 1.290000 5.470000
vt 1.190000 3.660000
vt 2.050000 0.000000
vt 2.440000 23.520000
vt 4.940000 23.500000
vt 5.690000 23.549999
vt 5.690000 23.549999
vt 7.040000 24.170000
vt 1.290000 24.200001
vt 1.290000 24.200001
vt 1.290000 5.470000
vt 2.050000 0.000000
vt 2.440000 23.520000
vt 5.690000 23.549999
vt 1.290000 24.200001
vt 1.290000 24.200001
vt 2.050000 0.000000
vt 2.050000 19.440001
vt 2.050000 19.440001
vt 2.440000 23.520000
vt 1.290000 24.200001
vn 0.0000 1.0000 0.0000
usemtl Default_OBJ
s 1
f 1/1/1 2/2/1 3/3/1
f 4/4/1 5/5/1 6/6/1
f 7/7/1 8/8/1 9/9/1
f 10/10/1 11/11/1 12/12/1
f 13/13/1 14/14/1 15/15/1
f 16/16/1 17/17/1 18/18/1
f 19/19/1 20/20/1 21/21/1
f 22/22/1 23/23/1 24/24/1
f 25/25/1 26/26/1 27/27/1
f 28/28/1 29/29/1 30/30/1
f 31/31/1 32/32/1 33/33/1
f 34/34/1 35/35/1 36/36/1
f 37/37/1 38/38/1 39/39/1
f 40/40/1 41/41/1 42/42/1
f 43/43/1 44/44/1 45/45/1
f 46/46/1 47/47/1 48/48/1
f 49/49/1 50/50/1 51/51/1
f 52/52/1 53/53/1 54/54/1
